<svg width="46" height="28" viewBox="0 0 46 28" fill="none" xmlns="http://www.w3.org/2000/svg">
<path d="M11.6888 18.3109C9.50438 19.5568 7.23857 20.6819 5.16536 22.0898C3.7213 23.0724 2.5214 24.4241 1.26246 25.6605C1.0075 25.908 0.882733 26.3704 0.858515 26.7417C0.837872 27.0524 0.972518 27.4939 1.19871 27.6559C1.35558 27.7696 1.85404 27.5907 2.08433 27.4009C3.61983 26.1452 5.04404 24.734 6.66748 23.6058C8.13858 22.5839 9.79736 21.821 11.4156 21.0286C11.698 20.8921 12.3512 21.0469 12.5536 21.2955C14.0507 23.1409 15.9596 24.336 18.2783 24.666C19.9376 24.9031 21.6577 24.8787 23.342 24.7801C25.0262 24.6815 26.3103 23.5311 26.6969 22.0334C26.9345 21.1045 26.8153 20.2599 26.0447 19.5702C23.7642 17.5251 21.0148 17.2628 18.1395 17.5353C16.8952 17.6532 15.6582 17.8885 14.2963 18.0895C14.4021 16.7112 15.23 15.8205 16.2126 15.1067C18.3074 13.5805 20.7911 12.9875 23.2646 12.455C25.5219 11.9714 27.8002 11.579 30.0757 11.2011C30.9636 11.0528 31.8765 10.9971 32.7738 11.0176C33.0724 11.0235 33.4973 11.3313 33.6331 11.6121C35.0987 14.6429 36.4934 15.495 39.8567 15.2938C40.8278 15.236 41.8008 15.1414 42.77 15.0389C43.6916 14.9397 44.3358 14.3961 44.5801 13.549C44.8049 12.7702 44.6125 12.0461 44.0415 11.3546C42.5285 9.51699 40.475 9.04231 38.265 8.85575C37.4083 8.78301 36.5533 8.67999 35.5661 8.5755C35.9968 6.27194 37.3758 4.79445 39.3329 3.96897C40.8125 3.34505 42.4629 3.12223 44.023 2.67839C44.4651 2.55285 44.8644 2.28456 45.3812 2.03469C44.3031 0.620873 42.9023 0.945269 41.7658 1.00777C37.822 1.22492 33.9337 4.35707 33.396 7.85972C33.299 8.49502 32.9273 8.68458 32.3469 8.69395C29.3892 8.73495 26.5367 9.4148 23.6586 10.0417C21.0379 10.6094 18.4321 11.1471 16.0942 12.4901C14.1191 13.625 12.4338 15.0807 11.9711 17.4879C11.905 17.8337 11.8757 18.1878 11.828 18.5378L11.6915 18.303L11.6888 18.3109ZM24.5122 21.5796C22.732 23.6139 16.104 22.5958 15.0742 20.276C18.3475 19.7392 21.6148 19.1627 24.5122 21.5796ZM35.8535 11.1202C39.1481 11.1713 41.0021 11.7228 41.6455 12.863C39.4946 13.0499 37.2909 13.5763 35.8535 11.1202Z" fill="#E70D0D"/>
</svg>
